<svg xmlns="http://www.w3.org/2000/svg" viewBox="0 0 341.66 118.04"><defs><style>.cls-1{fill:#010101;}.cls-2{fill:#231f20;}</style></defs><title>Asset 2</title><g id="Layer_2" data-name="Layer 2"><g id="Layer_1-2" data-name="Layer 1"><path class="cls-1" d="M101.71,46.05s0-.1,0-.15v0h0v0c0-.06,0-.12,0-.17v0h0l0,0a.89.89,0,0,0-.08-.17h0v0l-.12-.15,0,0v0l-28-29.71h0l-.09-.08a.7.7,0,0,0-.1-.08h0L51.56.22h0l0,0,0,0L51.35.1h-.06l-.17,0h-.06l-.17,0h-.07l-.17,0h-.06l-.17.05h-.06l-.15.08,0,0,0,0h0L28.53,15.32h0a.39.39,0,0,0-.1.08l-.1.08h0L.34,45.19v0l0,0-.12.15v0h0s0,.11-.08.17v0h0v0a.85.85,0,0,0,0,.17v0H0v0a.76.76,0,0,0,0,.15V69.81a.11.11,0,0,1,0,0s0,0,0,.07S0,70,0,70A.09.09,0,0,1,0,70l0,.07v0l16.87,47.09h0l0,.08v0l0,.07h0a.36.36,0,0,0,.07.1v0h0l0,0a.63.63,0,0,0,.11.12v0h0l.11.09h0l0,0h0l.07,0h0l0,0h0l.15,0h0l.09,0H83.81l.09,0h0l.15,0h0l0,0h0l.08,0h0l0,0h0l.11-.09h0v0l.11-.12,0,0h0l0,0a.36.36,0,0,0,.07-.1h0a.25.25,0,0,0,0-.07v0l0-.08h0l16.87-47.09v0a.14.14,0,0,0,0-.07l0-.05s0,0,0-.06,0-.05,0-.07v0a.19.19,0,0,0,0-.08V46.05ZM49.61,3.62V16L29.69,40V17.66l.36-.38Zm22,13.66.36.38V40L52.09,16V3.62ZM99.23,68.81,82.54,63l2.09-6.3,14.6-8.5ZM2.48,48.2l14.6,8.5L19.17,63,2.48,68.81ZM50.85,18.35,70.48,42l-19.62-.06h0L31.23,42Zm0,75.81h-.54l-28.15-30-.5-1.53-.23-.69,7.12-16.71,1.64-2,.29-.34,20.37-.06,20.38.06.29.34,1.64,2,7.12,16.71-.23.69-.51,1.53-28.14,30ZM80.71,60.65l-5.53-13,7,8.47ZM21,60.65l-1.49-4.52,7-8.47ZM49.07,94.16h-17l-9.26-28ZM31.9,96.64H48.13L21.08,114.32Zm37.91,0,10.81,17.68-27-17.68Zm-.2-2.48h-17l26.23-28Zm14.27-39.9L73.43,41.67l-.51-.61V18.62L98.49,45.76ZM28.79,18.62V41.06l-.51.61h0L17.83,54.26,3.21,45.76ZM19.45,63.86l10.4,31.38-11.44,18.7L2.56,69.73ZM49.78,96.64h2.15l28.94,18.92h-60Zm33.52,17.3L71.86,95.24l10.4-31.38,16.88,5.87Z"/><polygon class="cls-2" points="144.56 73.68 144.56 70.63 134.36 70.63 134.36 52.8 146.88 52.8 146.88 49.58 130.09 49.58 130.09 96.34 147 96.34 147 93.24 134.36 93.24 134.36 73.68 144.56 73.68"/><path class="cls-2" d="M180.48,50.84a15.66,15.66,0,0,0-14.27,0,9.44,9.44,0,0,0-3.73,4.85,22.05,22.05,0,0,0-1.13,7.42V82.59a24,24,0,0,0,1.07,7.47,9.57,9.57,0,0,0,3.67,5,12.66,12.66,0,0,0,7.28,1.81,12.27,12.27,0,0,0,7.19-1.83,9.8,9.8,0,0,0,3.64-5,23.48,23.48,0,0,0,1.07-7.41V63.11a22.89,22.89,0,0,0-1.09-7.42A9.34,9.34,0,0,0,180.48,50.84ZM181,83.57a20.28,20.28,0,0,1-.61,5.22,6.49,6.49,0,0,1-2.27,3.53,7.75,7.75,0,0,1-4.76,1.27,8,8,0,0,1-4.84-1.27,6.37,6.37,0,0,1-2.3-3.53,19.9,19.9,0,0,1-.61-5.22V62.3a19.56,19.56,0,0,1,.61-5.19,6.13,6.13,0,0,1,2.3-3.45,8.25,8.25,0,0,1,4.84-1.2,8,8,0,0,1,4.76,1.2,6.24,6.24,0,0,1,2.27,3.45A20,20,0,0,1,181,62.3Z"/><path class="cls-2" d="M203.31,95.34a11.64,11.64,0,0,0,6.3,1.58,12.5,12.5,0,0,0,5.57-1.18,8.53,8.53,0,0,0,3.76-3.52,11.76,11.76,0,0,0,1.35-5.86,13.12,13.12,0,0,0-2-7.14,30.48,30.48,0,0,0-4.8-5.78l-8.29-7.82a11.89,11.89,0,0,1-2.6-3.4,8.25,8.25,0,0,1-.74-3.52,5.71,5.71,0,0,1,1.9-4.77,8.58,8.58,0,0,1,9.13-.41,6.45,6.45,0,0,1,2.3,3.26,21.19,21.19,0,0,1,.95,5l3.57-.93a22,22,0,0,0-1.09-5.4,9.53,9.53,0,0,0-2.21-3.64,8.26,8.26,0,0,0-3.38-2,14.74,14.74,0,0,0-4.46-.63,11,11,0,0,0-7.64,2.58c-1.9,1.71-2.87,4.2-2.87,7.41a11.86,11.86,0,0,0,1,5,14.68,14.68,0,0,0,3.23,4.41l8.29,7.94a29.08,29.08,0,0,1,4.21,4.77,9.49,9.49,0,0,1,1.55,5.45c0,2.37-.59,4.13-1.77,5.23a7,7,0,0,1-4.94,1.65,6.87,6.87,0,0,1-4.53-1.39,7.9,7.9,0,0,1-2.4-3.75,25.49,25.49,0,0,1-1-5.15L198,84.34a20.19,20.19,0,0,0,1.55,6.58A9.77,9.77,0,0,0,203.31,95.34Z"/><path class="cls-2" d="M262.89,94.56a9.9,9.9,0,0,0,3.79-5A23,23,0,0,0,267.83,82V63.28a20.93,20.93,0,0,0-1.15-7.21,9.31,9.31,0,0,0-3.88-4.79,14.45,14.45,0,0,0-7.63-1.7h-10.1V96.34h10.51A13,13,0,0,0,262.89,94.56Zm-13.61-1.32V52.8h5.84a9.36,9.36,0,0,1,5.36,1.27,6.25,6.25,0,0,1,2.42,3.71,25.12,25.12,0,0,1,.61,6V81.25a36.51,36.51,0,0,1-.47,6.14,7.17,7.17,0,0,1-2.23,4.29c-1.18,1-3,1.56-5.52,1.56Z"/><path class="cls-2" d="M299.68,83.76l0,.08,2.3,12.5h4.14l-9.93-46.76h-4.47l-9.87,46.76H286l2.38-12.58ZM294,54.82l5.11,25.95H288.92Z"/><path class="cls-2" d="M336.86,50.84a15.64,15.64,0,0,0-14.26,0,9.39,9.39,0,0,0-3.73,4.85,22.05,22.05,0,0,0-1.13,7.42V82.59a24,24,0,0,0,1.07,7.47,9.52,9.52,0,0,0,3.67,5,12.64,12.64,0,0,0,7.28,1.81A12.29,12.29,0,0,0,337,95.09a9.8,9.8,0,0,0,3.64-5,23.48,23.48,0,0,0,1.07-7.41V63.11a22.61,22.61,0,0,0-1.1-7.42A9.29,9.29,0,0,0,336.86,50.84Zm.54,32.73a19.82,19.82,0,0,1-.62,5.22,6.47,6.47,0,0,1-2.26,3.53,7.75,7.75,0,0,1-4.76,1.27,8,8,0,0,1-4.84-1.27,6.37,6.37,0,0,1-2.3-3.53,19.9,19.9,0,0,1-.61-5.22V62.3a19.56,19.56,0,0,1,.61-5.19,6.13,6.13,0,0,1,2.3-3.45,8.25,8.25,0,0,1,4.84-1.2,8,8,0,0,1,4.75,1.2,6.19,6.19,0,0,1,2.27,3.45,19.53,19.53,0,0,1,.62,5.19Z"/></g></g></svg>