<svg xmlns="http://www.w3.org/2000/svg" viewBox="0 0 224.73 260.82"><defs><style>.cls-1{fill:#010101;}</style></defs><title>Asset 5</title><g id="Layer_2" data-name="Layer 2"><g id="Layer_1-2" data-name="Layer 1"><path class="cls-1" d="M224.73,101.74c0-.11,0-.22,0-.32a.17.17,0,0,0,0-.07v0s0,0,0-.06a1.86,1.86,0,0,0-.1-.39v-.06s0,0,0-.06a2.64,2.64,0,0,0-.18-.38v0s0,0,0,0h0l0,0a2.18,2.18,0,0,0-.26-.34l0,0s0,0,0,0L162.13,34.21h0a1.9,1.9,0,0,0-.21-.19c-.07-.06-.14-.13-.21-.18h0L113.94.49h0l-.08,0-.06,0a2.55,2.55,0,0,0-.33-.17h0l-.08,0h-.05A2.53,2.53,0,0,0,113,.06h-.15l-.36,0h-.16l-.37,0h-.14l-.37.11,0,0-.07,0h0l-.33.17-.06,0-.07,0h0L63,33.84h0c-.07,0-.14.12-.21.18a1.9,1.9,0,0,0-.21.19h0L.75,99.86s0,0,0,0l0,0a2.13,2.13,0,0,0-.25.34l0,0h0l0,0v0c-.07.12-.12.25-.18.38l0,.06v0s0,0,0,0-.07.26-.1.39a.13.13,0,0,1,0,.06v0s0,.05,0,.07,0,.21,0,.32v52.34c0,.06,0,.12,0,.17s0,.08,0,.12,0,.09,0,.14l0,.14,0,.11a1,1,0,0,0,0,.16s0,0,0,0L37.44,259s0,0,0,0a1.11,1.11,0,0,0,.07.16s0,0,0,.05l.07.15,0,0a1.58,1.58,0,0,0,.15.24l0,0h0l.06.07a2.85,2.85,0,0,0,.23.26l0,0,0,0h0a2.43,2.43,0,0,0,.25.2l0,0,.1.06s0,0,0,0l0,0,.17.09.06,0,.06,0h0l.31.11.09,0,.22,0h.13l.3,0H184.75l.29,0h.14l.21,0,.09,0,.32-.11h0l.07,0,.06,0,.16-.09,0,0,0,0,.1-.06,0,0,.26-.2h0l0,0,0,0a3,3,0,0,0,.24-.26l0-.07h0a.1.1,0,0,1,0,0c0-.08.1-.16.14-.24l0,0a1,1,0,0,0,.07-.15s0,0,0-.05a1.11,1.11,0,0,0,.07-.16l0,0,37.27-104s0,0,0,0a1,1,0,0,0,0-.16l0-.11,0-.14a.78.78,0,0,0,0-.14.49.49,0,0,0,0-.12.91.91,0,0,0,0-.17V101.74ZM109.63,8V35.27l-44,53V39l.8-.86Zm48.7,30.17.8.86V88.32l-44-53V8ZM219.25,152l-36.87-12.82L187,125.29l32.26-18.78ZM5.48,106.51l32.26,18.78,4.61,13.92L5.48,152ZM112.37,40.56l43.36,52.25-43.36-.13h0L69,92.81Zm0,167.49h-1.21L49,141.76l-1.11-3.37-.51-1.52L63.07,100l3.64-4.38.63-.77,45-.13,45,.13.63.77,3.64,4.38,15.72,36.92-.51,1.52-1.11,3.37-62.19,66.29Zm66-74-12.22-28.7L181.63,124ZM46.41,134,43.1,124l15.53-18.71Zm62,74H70.93L50.47,146.27Zm-37.94,5.48h35.86L46.59,252.6Zm83.76,0,23.9,39.07-59.77-39.07Zm-.45-5.48H116.31l58-61.78Zm31.54-88.15-23.1-27.83-1.11-1.35V41.14l56.5,60ZM63.61,41.14V90.72l-1.12,1.34h0L39.39,119.9,7.1,101.11ZM43,141.1l23,69.34L40.67,251.77l-35-97.69Zm67,72.43h4.75l64,41.81H46Zm74.08,38.24-25.28-41.33,23-69.34,37.32,13Z"/></g></g></svg>